<?xml version="1.0" encoding="utf-8"?>
<!-- Generator: Adobe Illustrator 19.1.0, SVG Export Plug-In . SVG Version: 6.00 Build 0)  -->
<svg version="1.1" id="Layer_1" xmlns="http://www.w3.org/2000/svg" xmlns:xlink="http://www.w3.org/1999/xlink" x="0px" y="0px"
	 viewBox="0 0 170.7 170.7" style="enable-background:new 0 0 170.7 170.7;" xml:space="preserve">
<style type="text/css">
	.st0{fill:#FFFFFF;}
</style>
<path class="st0" d="M147.5,0.1H22.9c-12.7,0-23,10.3-23,23v124.6c0,12.7,10.3,23,23,23h44V99.1H48.4V76.5h18.5V44.6
	c0.7-13.3,8.5-21.9,21.8-24.1c4.9-0.8,9.9-1,15.1-1.1c5-0.1,10-0.1,15-0.1c1,0,2.1,0,3.1,0v23.8h-9.2c-2.4,0-4.8,0-7.2,0
	c-6.6,0.1-10.4,3.8-10.5,10.4h0v23h26.6l-2.1,22.6H95v71.7h52.5c12.7,0,23-10.3,23-23V23.1C170.5,10.4,160.2,0.1,147.5,0.1z"/>
</svg>
