<?xml version="1.0" encoding="utf-8"?>
<!-- Generator: Adobe Illustrator 19.1.0, SVG Export Plug-In . SVG Version: 6.00 Build 0)  -->
<svg version="1.1" id="Layer_1" xmlns="http://www.w3.org/2000/svg" xmlns:xlink="http://www.w3.org/1999/xlink" x="0px" y="0px"
	 viewBox="0 0 170.7 170.7" style="enable-background:new 0 0 170.7 170.7;" xml:space="preserve">
<style type="text/css">
	.st0{fill:#FFFFFF;}
</style>
<g>
	<path class="st0" d="M40.6,47.3c10.9-12.9,27.1-21.1,45.2-21.1s34.4,8.2,45.2,21.1h40.1V20.1C171.1,9,162.1,0,151,0H20.5
		C9.5,0,0.5,9,0.5,20.1v27.2H40.6z M135.6,18.3c0-2.7,2.2-4.9,4.9-4.9h11c2.7,0,4.9,2.2,4.9,4.9v11c0,2.7-2.2,4.9-4.9,4.9h-11
		c-2.7,0-4.9-2.2-4.9-4.9V18.3z"/>
	<path class="st0" d="M46.5,85.3c0,21.7,17.6,39.3,39.3,39.3s39.3-17.6,39.3-39.3S107.5,46,85.8,46S46.5,63.7,46.5,85.3z"/>
	<path class="st0" d="M142,67.1c1.9,5.7,2.9,11.9,2.9,18.2c0,32.6-26.5,59.1-59.1,59.1s-59.1-26.5-59.1-59.1c0-6.3,1-12.5,2.9-18.2
		H0.5v83.4c0,11.1,9,20.1,20.1,20.1H151c11.1,0,20.1-9,20.1-20.1V67.1H142z"/>
</g>
</svg>
