<?xml version="1.0" encoding="utf-8"?>
<!-- Generator: Adobe Illustrator 19.1.0, SVG Export Plug-In . SVG Version: 6.00 Build 0)  -->
<svg version="1.1" id="Layer_1" xmlns="http://www.w3.org/2000/svg" xmlns:xlink="http://www.w3.org/1999/xlink" x="0px" y="0px"
	 viewBox="0 0 257 72" style="enable-background:new 0 0 257 72;" xml:space="preserve">
<style type="text/css">
	.st0{fill:#FFFFFF;}
</style>
<path class="st0" d="M1.7,39.7l5.7-6.8c3.9,3.2,8,5.3,13,5.3c3.9,0,6.3-1.6,6.3-4.1V34c0-2.4-1.5-3.7-8.8-5.5
	C9.1,26.2,3.5,23.8,3.5,15.1V15c0-7.9,6.3-13.1,15.2-13.1c6.3,0,11.8,2,16.2,5.5l-5,7.2c-3.9-2.7-7.7-4.3-11.3-4.3
	c-3.7,0-5.6,1.7-5.6,3.8v0.1c0,2.9,1.9,3.8,9.4,5.7c8.8,2.3,13.8,5.5,13.8,13.1v0.1c0,8.6-6.6,13.5-16,13.5
	C13.6,46.7,6.9,44.4,1.7,39.7"/>
<path class="st0" d="M107.2,27.4V2.5h9.6v24.6c0,7.1,3.5,10.8,9.4,10.8c5.8,0,9.4-3.5,9.4-10.5v-25h9.6v24.6
	c0,13.2-7.4,19.7-19.1,19.7S107.2,40.2,107.2,27.4"/>
<path class="st0" d="M165,2.5h19.9c5.5,0,9.8,1.6,12.7,4.4c2.4,2.4,3.7,5.8,3.7,10V17c0,7-3.8,11.4-9.3,13.5L202.6,46h-11.2
	l-9.3-13.9H182h-7.4V46H165V2.5z M184.3,23.6c4.7,0,7.3-2.5,7.3-6.2v-0.1c0-4.1-2.9-6.2-7.5-6.2h-9.5v12.5H184.3z"/>
<path class="st0" d="M222.5,2.5h17.8c10.4,0,16.7,6.2,16.7,15.1v0.1c0,10.1-7.8,15.3-17.6,15.3h-7.3V46h-9.6V2.5z M239.7,24.4
	c4.8,0,7.6-2.9,7.6-6.6v-0.1c0-4.3-3-6.6-7.8-6.6h-7.4v13.3H239.7z"/>
<path class="st0" d="M87.4,30.7H65.6V1.2h-9.6l0,30.3c0,10.5,5.9,15.9,15.5,15.9c9.5,0,15.6-5.2,15.8-15.7L87.4,30.7z"/>
<path class="st0" d="M69.5,69.5l1.1-1.3c0.8,0.6,1.5,1,2.5,1c0.8,0,1.2-0.3,1.2-0.8v0c0-0.5-0.3-0.7-1.7-1.1
	c-1.7-0.4-2.8-0.9-2.8-2.6v0c0-1.5,1.2-2.5,2.9-2.5c1.2,0,2.3,0.4,3.1,1.1l-1,1.4c-0.7-0.5-1.5-0.8-2.2-0.8c-0.7,0-1.1,0.3-1.1,0.7
	v0c0,0.6,0.4,0.7,1.8,1.1c1.7,0.4,2.7,1.1,2.7,2.5v0c0,1.7-1.3,2.6-3.1,2.6C71.8,70.9,70.6,70.4,69.5,69.5"/>
<path class="st0" d="M79.8,66.6L79.8,66.6c0-2.4,1.9-4.4,4.5-4.4c2.6,0,4.5,1.9,4.5,4.3v0c0,2.4-1.9,4.3-4.5,4.3
	C81.6,70.9,79.8,69,79.8,66.6 M86.8,66.6L86.8,66.6c0-1.5-1.1-2.7-2.5-2.7s-2.5,1.2-2.5,2.6v0c0,1.4,1.1,2.6,2.5,2.6
	C85.7,69.2,86.8,68,86.8,66.6"/>
<path class="st0" d="M92.7,67.2v-4.8h1.8v4.7c0,1.4,0.7,2.1,1.8,2.1c1.1,0,1.8-0.7,1.8-2v-4.8h1.8v4.7c0,2.5-1.4,3.8-3.7,3.8
	C94.1,70.9,92.7,69.6,92.7,67.2"/>
<path class="st0" d="M104.4,62.4h3.4c2,0,3.2,1.2,3.2,2.9v0c0,1.9-1.5,3-3.4,3h-1.4v2.5h-1.8V62.4z M107.8,66.6
	c0.9,0,1.5-0.6,1.5-1.3v0c0-0.8-0.6-1.3-1.5-1.3h-1.4v2.6H107.8z"/>
<path class="st0" d="M125.5,69.9c-0.7,0.6-1.5,0.9-2.5,0.9c-1.6,0-2.8-0.9-2.8-2.4v0c0-1.1,0.6-1.8,1.6-2.3
	c-0.4-0.6-0.6-1.1-0.6-1.7v0c0-1.2,0.9-2.2,2.5-2.2c1.4,0,2.4,0.9,2.4,2.1v0c0,1.1-0.7,1.8-1.8,2.2l1.1,1.1c0.3-0.4,0.6-0.9,0.8-1.4
	l1.4,0.7c-0.3,0.6-0.7,1.2-1.1,1.8l1.2,1.2l-1.4,0.9L125.5,69.9z M124.5,68.9l-1.6-1.6c-0.6,0.3-0.8,0.7-0.8,1.1v0
	c0,0.6,0.5,1,1.2,1C123.7,69.4,124.1,69.2,124.5,68.9 M124.6,64.5L124.6,64.5c0-0.5-0.3-0.8-0.8-0.8c-0.5,0-0.8,0.3-0.8,0.9v0
	c0,0.4,0.1,0.6,0.5,1C124.2,65.3,124.6,65,124.6,64.5"/>
<path class="st0" d="M137,69.5l1.1-1.3c0.8,0.6,1.5,1,2.5,1c0.8,0,1.2-0.3,1.2-0.8v0c0-0.5-0.3-0.7-1.7-1.1
	c-1.7-0.4-2.8-0.9-2.8-2.6v0c0-1.5,1.2-2.5,2.9-2.5c1.2,0,2.3,0.4,3.1,1.1l-1,1.4c-0.7-0.5-1.5-0.8-2.2-0.8c-0.7,0-1.1,0.3-1.1,0.7
	v0c0,0.6,0.4,0.7,1.8,1.1c1.7,0.4,2.7,1.1,2.7,2.5v0c0,1.7-1.3,2.6-3.1,2.6C139.3,70.9,138,70.4,137,69.5"/>
<path class="st0" d="M150.4,62.3h1.7l3.6,8.5h-1.9l-0.8-1.9h-3.6l-0.8,1.9h-1.9L150.4,62.3z M152.3,67.2l-1.1-2.7l-1.1,2.7H152.3z"
	/>
<polygon class="st0" points="159.4,62.4 161.2,62.4 161.2,69.1 165.4,69.1 165.4,70.8 159.4,70.8 "/>
<path class="st0" d="M172.4,62.3h1.7l3.6,8.5h-1.9l-0.8-1.9h-3.6l-0.8,1.9h-1.9L172.4,62.3z M174.3,67.2l-1.1-2.7l-1.1,2.7H174.3z"
	/>
<path class="st0" d="M181.4,62.4h3.3c2.6,0,4.5,1.8,4.5,4.2v0c0,2.4-1.8,4.2-4.5,4.2h-3.3V62.4z M184.7,69.1c1.5,0,2.5-1,2.5-2.5v0
	c0-1.5-1-2.5-2.5-2.5h-1.4v5.1H184.7z"/>
</svg>
