<?xml version="1.0" encoding="utf-8"?>
<!-- Generator: Adobe Illustrator 19.1.0, SVG Export Plug-In . SVG Version: 6.00 Build 0)  -->
<svg version="1.1" id="Layer_1" xmlns="http://www.w3.org/2000/svg" xmlns:xlink="http://www.w3.org/1999/xlink" x="0px" y="0px"
	 viewBox="0 0 180.1 146.4" style="enable-background:new 0 0 180.1 146.4;" xml:space="preserve">
<style type="text/css">
	.st0{fill:#FFFFFF;}
</style>
<path class="st0" d="M180.1,17.3c-6.6,2.9-13.8,4.9-21.2,5.8c7.6-4.6,13.5-11.8,16.3-20.4c-7.1,4.2-15.1,7.3-23.5,9
	C145,4.5,135.4,0,124.7,0c-20.4,0-37,16.5-37,37c0,2.9,0.3,5.7,1,8.4C58,43.8,30.8,29.1,12.5,6.8c-3.2,5.5-5,11.8-5,18.6
	c0,12.8,6.5,24.1,16.4,30.8c-6.1-0.2-11.8-1.9-16.7-4.6c0,0.2,0,0.3,0,0.5c0,17.9,12.7,32.8,29.6,36.2c-3.1,0.8-6.4,1.3-9.7,1.3
	c-2.4,0-4.7-0.2-7-0.7c4.7,14.7,18.4,25.4,34.5,25.7c-12.6,9.9-28.6,15.8-45.9,15.8c-3,0-5.9-0.2-8.8-0.5
	c16.4,10.5,35.8,16.6,56.7,16.6c68,0,105.2-56.3,105.2-105.2c0-1.6,0-3.2-0.1-4.8C168.9,31.3,175.2,24.7,180.1,17.3z"/>
</svg>
